<svg width="120" height="32" viewBox="0 0 120 32" fill="none" xmlns="http://www.w3.org/2000/svg">
<g clip-path="url(#clip0_610_72618)">
<path d="M68.7949 9.81395L74.9193 7.53488L68.7949 5.1907V2L79.2845 6.23256V8.83721L68.7949 13.0698V9.81395Z" fill="#6F6F6F"/>
<path d="M10.8744 30.0001C8.65923 30.0001 6.83496 28.8931 6.83496 26.4187V26.2885C6.83496 23.2931 9.44107 22.2512 12.6335 22.2512H14.1321V21.6652C14.1321 20.428 13.6108 19.7117 12.3078 19.7117C11.135 19.7117 10.5487 20.3629 10.4835 21.2745H7.22588C7.48649 18.5396 9.63652 17.2373 12.5032 17.2373C15.4351 17.2373 17.5851 18.4745 17.5851 21.535V29.7396H14.2624V28.3071C13.6108 29.2187 12.5032 30.0001 10.8744 30.0001ZM14.1321 25.7024V24.5303H12.7639C11.0699 24.5303 10.2229 24.9861 10.2229 26.0931V26.2233C10.2229 27.0699 10.7441 27.6559 11.9169 27.6559C13.0896 27.5908 14.1321 26.9396 14.1321 25.7024ZM25.3383 30.0001C21.9504 30.0001 19.4746 27.9164 19.4746 23.7489V23.5536C19.4746 19.3861 22.0807 17.1722 25.3383 17.1722C28.1399 17.1722 30.4202 18.6047 30.6808 21.7954H27.4232C27.2277 20.6233 26.5762 19.8419 25.4035 19.8419C23.9701 19.8419 22.9277 21.014 22.9277 23.4233V23.814C22.9277 26.2885 23.8398 27.3954 25.4035 27.3954C26.5762 27.3954 27.4232 26.5489 27.6187 25.1815H30.746C30.5505 28.0466 28.6611 30.0001 25.3383 30.0001ZM38.1082 30.0001C34.7203 30.0001 32.2445 27.9164 32.2445 23.7489V23.5536C32.2445 19.3861 34.8506 17.1722 38.1082 17.1722C40.9098 17.1722 43.1901 18.6047 43.4507 21.7954H40.1931C39.9977 20.6233 39.3461 19.8419 38.1734 19.8419C36.74 19.8419 35.6976 21.014 35.6976 23.4233V23.814C35.6976 26.2885 36.6097 27.3954 38.1734 27.3954C39.3461 27.3954 40.1931 26.5489 40.3886 25.1815H43.5159C43.3204 28.0466 41.431 30.0001 38.1082 30.0001ZM50.9433 30.0001C47.4251 30.0001 45.0144 27.9164 45.0144 23.814V23.5536C45.0144 19.4512 47.5554 17.1722 50.8781 17.1722C53.9403 17.1722 56.4813 18.8652 56.4813 22.9675V24.4652H48.4675C48.5978 26.6792 49.5751 27.5257 51.0085 27.5257C52.3115 27.5257 53.0282 26.8094 53.2888 25.9629H56.4813C56.0904 28.2419 54.1358 30.0001 50.9433 30.0001ZM48.5327 22.1861H53.0933C53.0282 20.3629 52.1812 19.5815 50.813 19.5815C49.7706 19.6466 48.7933 20.2326 48.5327 22.1861ZM58.5662 17.4978H62.0192V19.321C62.6056 18.1489 63.8435 17.2373 65.733 17.2373C67.9481 17.2373 69.4467 18.6047 69.4467 21.535V29.7396H65.9936V22.0559C65.9936 20.6233 65.4072 19.9722 64.1693 19.9722C62.9965 19.9722 62.0192 20.6885 62.0192 22.2512V29.7396H58.5662V17.4978ZM75.7665 13.7861V17.4978H78.112V20.0373H75.7665V25.8326C75.7665 26.7443 76.1574 27.2001 77.0044 27.2001C77.5256 27.2001 77.8513 27.135 78.1771 27.0047V29.6745C77.7862 29.8047 77.0695 29.935 76.2225 29.935C73.5513 29.935 72.3134 28.6978 72.3134 26.2233V20.0373H70.88V17.4978H72.3134V15.2187L75.7665 13.7861ZM91.0122 29.7396H87.6242V27.9164C87.0379 29.0885 85.8651 30.0001 84.0408 30.0001C81.8257 30.0001 80.1968 28.6326 80.1968 25.7675V17.4978H83.6499V25.3117C83.6499 26.7443 84.2363 27.3954 85.409 27.3954C86.5818 27.3954 87.5591 26.614 87.5591 25.1164V17.4978H91.0122V29.7396ZM93.5531 17.4978H97.0062V19.7768C97.7229 18.1489 98.8957 17.3675 100.72 17.3675V20.7536C98.3744 20.7536 97.0062 21.4699 97.0062 23.4885V29.8047H93.5531V17.4978ZM107.691 30.0001C104.173 30.0001 101.762 27.9164 101.762 23.814V23.5536C101.762 19.4512 104.303 17.1722 107.626 17.1722C110.688 17.1722 113.229 18.8652 113.229 22.9675V24.4652H105.281C105.411 26.6792 106.388 27.5257 107.822 27.5257C109.125 27.5257 109.841 26.8094 110.102 25.9629H113.294C112.773 28.2419 110.884 30.0001 107.691 30.0001ZM105.215 22.1861H109.841C109.776 20.3629 108.929 19.5815 107.561 19.5815C106.519 19.6466 105.541 20.2326 105.215 22.1861Z" fill="#6F6F6F"/>
</g>
<defs>
<clipPath id="clip0_610_72618">
<rect width="106.329" height="28" fill="white" transform="translate(6.83496 2)"/>
</clipPath>
</defs>
</svg>
