<svg width="109" height="32" viewBox="0 0 109 32" fill="none" xmlns="http://www.w3.org/2000/svg">
<g clip-path="url(#clip0_610_72587)">
<path d="M52.5517 21.7601L53.1934 21.6948L53.2362 22.9993C51.8099 23.2148 50.3707 23.3331 48.9284 23.3534C47.3375 23.3534 46.211 22.8918 45.5488 21.9688C44.8867 21.0457 44.555 19.6108 44.5537 17.6641C44.5537 13.7843 46.0932 11.8438 49.1721 11.8425C50.6601 11.8425 51.7718 12.2593 52.5071 13.0929C53.2424 13.9265 53.6107 15.2366 53.6119 17.0231L53.5245 18.2846H46.2333C46.2333 19.5096 46.454 20.4171 46.8955 21.0072C47.3369 21.5973 48.1069 21.8924 49.2056 21.8924C50.3017 21.8936 51.4171 21.8495 52.5517 21.7601ZM51.9547 16.9578C51.9547 15.6012 51.7377 14.6421 51.3037 14.0806C50.8697 13.5191 50.166 13.2389 49.1926 13.2402C48.213 13.2402 47.4764 13.5352 46.9829 14.1253C46.4894 14.7154 46.2339 15.6596 46.2166 16.9578H51.9547Z" fill="#6F6F6F"/>
<path d="M55.9219 23.2695V8.68579H57.5791V23.2695H55.9219Z" fill="#6F6F6F"/>
<path d="M68.0136 15.4092V20.9997C68.0136 21.5588 69.39 21.5308 69.39 21.5308L69.3044 22.9974C68.1401 22.9974 67.1766 23.0943 66.5981 22.5334C65.3473 23.0906 63.9922 23.374 62.6233 23.3645C61.6078 23.3645 60.8346 23.0763 60.3039 22.4998C59.7732 21.9234 59.5078 21.0973 59.5078 20.0214C59.5078 18.9443 59.7806 18.1511 60.3262 17.6417C60.8718 17.1323 61.7262 16.8218 62.8893 16.71L66.3563 16.3764V15.426C66.3563 14.6732 66.1945 14.1346 65.8709 13.8104C65.6945 13.643 65.486 13.5133 65.258 13.4294C65.03 13.3454 64.7873 13.3089 64.5447 13.3221H60.1923V11.8444H64.4443C65.6967 11.8444 66.6062 12.1326 67.1729 12.709C67.7396 13.2855 68.0198 14.1855 68.0136 15.4092ZM61.2097 19.9245C61.2097 21.2811 61.7677 21.9594 62.8837 21.9594C63.8917 21.9584 64.8923 21.7864 65.843 21.4507L66.3508 21.2643V17.6212L63.0865 17.9324C62.4243 17.9908 61.9457 18.1821 61.6505 18.5064C61.3567 18.8325 61.2097 19.3039 61.2097 19.9245Z" fill="#6F6F6F"/>
<path d="M74.4888 13.3278C72.8842 13.3278 72.0813 13.8868 72.0801 15.0049C72.0801 15.5205 72.2661 15.8857 72.6381 16.1006C73.0101 16.3156 73.8452 16.5392 75.1435 16.7715C76.4554 17.0013 77.3854 17.3225 77.9335 17.7349C78.4816 18.1474 78.7538 18.922 78.7501 20.0587C78.7501 21.1955 78.3861 22.0291 77.6582 22.5595C76.9304 23.09 75.8658 23.3559 74.4646 23.3571C73.5514 23.3571 70.5047 23.018 70.5047 23.018L70.5921 21.5793C72.3442 21.7489 73.6109 21.8738 74.4646 21.8738C75.3184 21.8738 75.9712 21.7377 76.4195 21.4638C76.8677 21.1899 77.0947 20.7333 77.0947 20.0923C77.0947 19.4512 76.9087 19.0152 76.5199 18.7878C76.1312 18.5605 75.296 18.3424 74.0015 18.1356C72.7069 17.9287 71.7844 17.625 71.2394 17.2281C70.6944 16.8311 70.4229 16.0913 70.4229 15.0142C70.4229 13.9371 70.7948 13.1395 71.5593 12.6234C72.3238 12.1072 73.2649 11.8481 74.3995 11.8481C75.296 11.8481 78.4134 12.0774 78.4134 12.0774V13.5253C76.7692 13.447 75.4188 13.3278 74.4888 13.3278Z" fill="#6F6F6F"/>
<path d="M86.7364 13.5048H83.2303V18.7952C83.2303 20.0649 83.3226 20.8985 83.5074 21.2961C83.6934 21.6948 84.1286 21.8942 84.8224 21.8942L86.7884 21.7601L86.8982 23.1335C86.1545 23.271 85.4016 23.3526 84.6457 23.3776C83.4962 23.3776 82.7008 23.0968 82.2593 22.5353C81.8179 21.9738 81.5966 20.9041 81.5953 19.3263V13.5048H80.0273V12.0662H81.5953V8.68018H83.2303V12.0662H86.7438L86.7364 13.5048Z" fill="#6F6F6F"/>
<path d="M89.0391 10.6518V8.72681H90.6963V10.6518H89.0391ZM89.0391 23.2696V12.0662H90.6963V23.2696H89.0391Z" fill="#6F6F6F"/>
<path d="M97.8741 11.8444C98.7018 11.8802 99.5262 11.9699 100.342 12.1127L100.872 12.1779L100.805 13.529C99.9413 13.4189 99.0722 13.3524 98.2015 13.3296C96.9491 13.3296 96.0984 13.6283 95.6495 14.2259C95.2007 14.8235 94.9762 15.9304 94.9762 17.5467C94.9762 19.1617 95.1858 20.2866 95.6049 20.9215C96.024 21.5563 96.897 21.8737 98.2238 21.8737L100.828 21.6743L100.895 23.0458C99.8793 23.2192 98.8534 23.3232 97.8239 23.3571C96.1015 23.3571 94.9124 22.9142 94.2564 22.0284C93.6004 21.1426 93.2725 19.6518 93.2725 17.556C93.2725 15.4515 93.6259 13.9756 94.3327 13.1283C95.0395 12.281 96.2199 11.8531 97.8741 11.8444Z" fill="#6F6F6F"/>
<path d="M39.965 16.7715C39.9682 15.4689 39.57 14.197 38.8246 13.1297C38.0792 12.0623 37.023 11.2516 35.8004 10.8083C35.9116 10.2399 35.9677 9.66201 35.9678 9.08274C35.9723 7.16106 35.3676 5.28758 34.241 3.73231C33.1144 2.17704 31.524 1.02029 29.6991 0.428793C27.8741 -0.162709 25.9088 -0.158424 24.0864 0.44103C22.2641 1.04048 20.6787 2.20415 19.5589 3.76432C18.7325 3.12279 17.72 2.76857 16.6747 2.75532C15.6294 2.74206 14.6082 3.0705 13.766 3.69087C12.9237 4.31123 12.3061 5.18973 12.0069 6.19328C11.7077 7.19683 11.7431 8.27074 12.1077 9.25232C10.8803 9.70023 9.81917 10.5139 9.06702 11.584C8.31487 12.654 7.90775 13.9291 7.90041 15.2379C7.89735 16.5464 8.29873 17.8237 9.04941 18.8944C9.80009 19.9652 10.8632 20.7768 12.0928 21.2178C11.9841 21.7866 11.9287 22.3643 11.9273 22.9434C11.9281 24.8583 12.5351 26.7236 13.6611 28.2709C14.7871 29.8182 16.3739 30.9677 18.1934 31.5542C20.0128 32.1406 21.9711 32.1337 23.7863 31.5343C25.6016 30.935 27.1803 29.7743 28.2953 28.219C29.1191 28.8639 30.1305 29.2217 31.1757 29.2381C32.221 29.2545 33.2431 28.9286 34.0866 28.3099C34.9302 27.6913 35.5491 26.8136 35.8494 25.8104C36.1496 24.8071 36.1148 23.7331 35.7502 22.7515C36.9781 22.3052 38.0402 21.4928 38.7937 20.4238C39.5472 19.3548 39.9559 18.0802 39.965 16.7715ZM20.314 4.73148C21.3456 3.22535 22.8645 2.12223 24.6142 1.60856C26.3638 1.09489 28.2367 1.20218 29.9165 1.9123C31.5963 2.62241 32.9798 3.8918 33.8333 5.50591C34.6868 7.12001 34.9579 8.97985 34.6007 10.7711L27.5234 16.9858L20.5056 13.7899L19.1367 10.8512L20.314 4.73148ZM16.7596 3.94322C17.5908 3.94249 18.3993 4.21553 19.0604 4.72029L18.0076 10.1971L13.1995 9.06038C12.9911 8.48566 12.9237 7.86915 13.0029 7.26284C13.082 6.65652 13.3056 6.07816 13.6546 5.57651C14.0036 5.07486 14.4678 4.66462 15.0082 4.38037C15.5486 4.09612 16.1493 3.94619 16.7596 3.94322ZM9.13359 15.2528C9.14186 14.1359 9.49796 13.0495 10.1522 12.1452C10.8064 11.2409 11.7261 10.5637 12.7829 10.2083L18.0597 11.4568L19.2985 14.1086L12.5504 20.2171C11.547 19.8331 10.6838 19.1528 10.0749 18.2663C9.46609 17.3798 9.14041 16.3289 9.14103 15.2528H9.13359ZM27.5755 27.2761C26.6215 28.6819 25.2427 29.7441 23.6417 30.307C22.0407 30.8698 20.3017 30.9035 18.6801 30.4031C17.0586 29.9027 15.6399 28.8946 14.6323 27.5268C13.6248 26.159 13.0816 24.5036 13.0824 22.8037C13.0818 22.2725 13.1335 21.7426 13.2367 21.2216L20.1466 14.9751L27.1905 18.1915L28.751 21.1731L27.5755 27.2761ZM31.0983 28.0606C30.2698 28.0585 29.465 27.7828 28.8087 27.2761L29.854 21.8179L34.6584 22.936C34.8668 23.5107 34.9343 24.1272 34.8551 24.7335C34.7759 25.3399 34.5524 25.9182 34.2034 26.4199C33.8544 26.9215 33.3901 27.3318 32.8497 27.616C32.3093 27.9003 31.7087 28.0502 31.0983 28.0532V28.0606ZM35.0825 21.803L29.7926 20.5638L28.3883 17.8747L35.3057 11.796C36.3099 12.1765 37.1748 12.8541 37.7854 13.7388C38.396 14.6236 38.7235 15.6735 38.7243 16.7492C38.7188 17.8668 38.3648 18.9547 37.7118 19.8608C37.0588 20.767 36.1395 21.446 35.0825 21.803Z" fill="#6F6F6F"/>
</g>
<defs>
<clipPath id="clip0_610_72587">
<rect width="93" height="32" fill="white" transform="translate(7.90039)"/>
</clipPath>
</defs>
</svg>
