<svg width="98" height="32" viewBox="0 0 98 32" fill="none" xmlns="http://www.w3.org/2000/svg">
<path d="M4.52381 3.34119C4.52381 3.13152 3.94142 2.55493 3.72964 2.55493H3.2002V2.03076H6.27098L9.44765 9.94577H9.50059L12.8361 2.03076H15.5892V2.55493H15.0598C14.848 2.55493 14.2656 3.13152 14.2656 3.34119V11.2038C14.2656 11.4135 14.9009 11.99 15.0598 11.99H15.5892V12.5142H11.5125V11.99H12.0419C12.2537 11.99 12.8361 11.4135 12.8361 11.2038V3.55086L9.02409 12.6715L5.15914 3.39361V11.1514C5.15914 11.361 5.79448 11.9376 5.95331 11.9376H6.48275V12.4618H3.2002V11.9376H3.72964C3.94142 11.9376 4.52381 11.361 4.52381 11.1514V3.34119Z" fill="#6F6F6F"/>
<path d="M20.0891 8.00634C20.3009 6.95799 20.0891 6.01448 18.9243 6.01448C17.5477 6.01448 16.9124 7.11524 16.9124 8.68776C16.9124 10.2079 17.8654 11.4659 19.4537 11.4659C20.6185 11.4659 21.148 11.0465 21.6245 10.2603H22.048C21.6245 11.728 20.6715 12.6715 18.9772 12.6715C17.0712 12.6715 15.8535 11.0465 15.8535 9.15952C15.8535 6.95799 17.336 5.54272 19.1361 5.54272C20.195 5.54272 20.9362 5.85723 21.5715 6.48624L20.5656 8.00634H20.0891Z" fill="#6F6F6F"/>
<path d="M33.9079 4.07511C34.4373 4.07511 34.8079 3.70819 34.8079 3.18401C34.8079 2.65984 34.3844 2.34534 33.9079 2.34534C33.3784 2.34534 33.0078 2.65984 33.0078 3.18401C33.0078 3.70819 33.3784 4.07511 33.9079 4.07511Z" fill="#6F6F6F"/>
<path d="M43.5968 11.99C43.385 11.99 42.8556 11.5183 42.8556 11.2562V7.48216C42.8556 6.32898 42.0085 5.54272 40.9496 5.54272C39.7319 5.54272 39.0965 6.22414 38.2494 7.06282L37.9847 5.69997H35.814V6.22414H36.2375C36.4493 6.22414 36.9788 6.74832 36.9788 6.95798V11.3086C36.9788 11.5183 36.4493 12.0425 36.2375 12.0425H35.814H35.3904C35.1786 12.0425 34.6492 11.5707 34.6492 11.3086V5.69997H32.2138V6.22414H32.6373C32.8491 6.22414 33.3785 6.6959 33.3785 6.90557V11.2562C33.3785 11.4659 32.8491 11.99 32.6373 11.99H32.2138H31.8431C31.6314 11.99 30.7843 11.361 30.5725 11.0989L26.8664 6.22414L29.4606 3.49845C29.6195 3.34119 30.6254 2.55493 30.8372 2.55493H31.3666V2.03076H27.5546V2.55493H28.0841C28.2959 2.55493 28.8782 3.28878 28.7194 3.44603L24.9604 7.63941V3.34119C24.9604 3.13152 25.5957 2.55493 25.7545 2.55493H26.284V2.03076H22.1543V2.55493H22.6837C22.8955 2.55493 23.4779 3.13152 23.4779 3.34119V11.2038C23.4779 11.4135 22.8426 11.99 22.6837 11.99H22.1543V12.5142H26.284V11.99H25.7545C25.5427 11.99 24.9604 11.4135 24.9604 11.2038V8.42567L26.0192 7.27249L29.6724 12.5142H32.2667H35.9199H39.5201V11.99H39.1495C38.9377 11.99 38.4083 11.5183 38.4083 11.2562V7.79666C38.4083 7.32491 39.6789 6.38139 40.6319 6.38139C41.3731 6.38139 41.7438 6.90557 41.7438 7.53457V11.2562C41.7438 11.4659 41.2143 11.99 41.0025 11.99H40.6319V12.5142H43.9674V11.99H43.5968Z" fill="#6F6F6F"/>
<path d="M44.8677 10.1031C44.8677 10.7321 45.8207 12.0949 47.3031 12.0949C48.1502 12.0949 48.6267 11.7804 48.6267 11.1514C48.6267 10.3652 47.9385 10.1555 47.3561 9.89341C46.8796 9.68374 46.509 9.52649 45.9266 9.2644C45.0795 8.89748 44.4971 8.32089 44.4971 7.4298C44.4971 6.2242 45.2383 5.49036 46.5619 5.49036C47.3031 5.49036 47.7267 5.85728 48.2561 5.85728C48.4679 5.85728 48.5738 5.80486 48.6267 5.64761H48.9974V7.7443H48.5738C48.5738 7.16771 47.7796 6.01453 46.509 6.01453C45.7148 6.01453 45.3442 6.38145 45.3442 6.90562C45.3442 7.48221 45.7677 7.69188 46.456 8.00639C46.9855 8.21605 47.3561 8.37331 47.9385 8.63539C48.6797 8.89748 49.5268 9.52649 49.5268 10.6272C49.5268 11.9377 48.6267 12.6715 47.3561 12.6715C46.509 12.6715 45.9795 12.2522 45.3971 12.2522C45.1324 12.2522 45.0265 12.3046 44.8677 12.4619H44.55V10.0507H44.8677V10.1031Z" fill="#6F6F6F"/>
<path d="M49.8975 9.1071C49.8975 7.11524 51.274 5.54272 53.0741 5.54272C54.6095 5.54272 55.5096 6.59107 55.5625 7.95392L55.6155 8.42567L51.0622 8.79259C51.0622 10.1554 52.0152 11.5183 53.5506 11.5183C54.7154 11.5183 55.2449 11.099 55.6684 10.3127H56.092C55.6155 11.7804 54.7684 12.7239 53.1271 12.7239C51.1681 12.6715 49.8975 10.9941 49.8975 9.1071ZM54.3977 8.00634C54.5036 7.06283 54.3448 6.0669 53.0212 6.0669C51.5917 6.0669 51.0093 7.22008 51.0093 8.26842L54.3977 8.00634Z" fill="#6F6F6F"/>
<path d="M56.7802 6.95809C56.6743 6.74842 56.039 6.22425 55.8802 6.22425H55.5625V5.70007H59.2157V6.22425H58.7921C58.5803 6.22425 58.1568 6.696 58.1568 6.95809L59.7451 10.5749L61.3335 6.95809C61.3335 6.696 60.9099 6.22425 60.7511 6.22425H60.3275V5.70007H63.0806V6.22425H62.763C62.6041 6.22425 62.1276 6.74842 61.9688 6.95809L59.6392 12.1998L57.8921 15.9739L57.2567 15.7118L59.1098 11.9901L56.7802 6.95809Z" fill="#6F6F6F"/>
<path d="M23.6372 17.9132C23.6372 18.7518 24.2196 19.4333 25.1196 19.7478C26.4962 21.2155 28.1374 22.7356 29.5669 23.9936C29.9905 23.3121 30.0964 22.6307 30.0964 21.7396C30.0964 20.7961 29.4611 20.2195 28.4022 20.1671V19.6429H32.1612V20.1671H31.7906C31.5788 20.1671 30.8376 21.0058 30.8376 21.3203C30.7847 22.2114 30.5729 23.3121 29.8846 24.2557C30.6788 24.9371 31.42 25.5137 32.0553 25.933H32.6907V26.4572H31.5259C30.5199 26.4572 29.7787 26.1951 28.8787 25.4088C28.0316 26.1951 26.9727 26.6669 25.3843 26.6669C23.6901 26.6669 22.0488 25.4088 22.0488 23.5742C22.0488 22.1066 22.7901 21.0582 23.7431 20.3768C23.2136 19.7478 22.8959 19.1188 22.8959 18.1753C22.8959 16.6552 23.9019 15.8689 25.4373 15.8689C26.3903 15.8689 26.9197 16.1834 27.3433 16.1834C27.5551 16.1834 27.7139 16.1834 27.8198 15.9737H28.2963V18.4373H27.8198C27.8198 17.7559 26.7609 16.3407 25.3843 16.3407C24.3254 16.3931 23.6372 16.9697 23.6372 17.9132ZM23.1607 22.9452C23.1607 24.4653 24.749 25.8806 26.2844 25.8806C27.2374 25.8806 27.9786 25.6185 28.561 25.1992C27.0256 23.8887 25.3314 22.2638 24.0078 20.7437C23.4783 21.2679 23.1607 21.8445 23.1607 22.9452Z" fill="#6F6F6F"/>
<path d="M43.5437 19.7478C43.5437 18.647 42.3259 16.4979 40.314 16.4979C38.461 16.4979 37.4021 17.4938 37.1903 19.8526C37.1374 20.7961 37.1374 21.5824 37.2433 22.5259C37.4021 24.3605 38.6728 25.8806 40.8435 25.8806C42.6965 25.8806 43.5437 25.0943 44.2319 23.7315H44.7614C44.0731 25.6185 42.5907 26.7193 40.4729 26.7193C37.455 26.7193 35.4961 24.2557 35.4961 21.2679C35.4961 18.2801 37.2433 15.8689 40.2082 15.8689C41.32 15.8689 42.0612 16.3407 42.8554 16.3407C43.173 16.3407 43.3319 16.2358 43.4907 16.0786H43.9672V19.8002H43.5437V19.7478Z" fill="#6F6F6F"/>
<path d="M45.5029 23.1025C45.5029 20.9009 47.0913 19.5381 48.8914 19.5381C50.6915 19.5381 52.2798 20.9009 52.2798 23.1025C52.2798 25.304 50.6915 26.7192 48.8914 26.7192C47.0913 26.7192 45.5029 25.304 45.5029 23.1025ZM50.9562 24.2556C51.0621 23.5742 51.0621 22.6307 50.9562 21.9493C50.8503 20.8485 50.215 20.1147 48.9443 20.1147C47.7266 20.1147 47.0913 20.8485 46.9324 21.9493C46.8265 22.6307 46.8265 23.5742 46.9324 24.2556C47.0913 25.304 47.6737 26.0902 48.9443 26.0902C50.215 26.0378 50.8503 25.304 50.9562 24.2556Z" fill="#6F6F6F"/>
<path d="M63.4514 25.2517C63.4514 25.4614 63.9808 25.9856 64.1926 25.9856H64.5102V26.5098H61.0688V25.9856H61.4395C61.6512 25.9856 62.1807 25.5138 62.1807 25.2517V21.4777C62.1807 20.7963 61.863 20.3769 61.1218 20.3769C60.2217 20.3769 59.1099 21.2156 59.1099 21.6874V25.2517C59.1099 25.4614 59.6393 25.9856 59.8511 25.9856H60.2217V26.5098H56.7274V25.9856H57.098C57.3098 25.9856 57.8392 25.5138 57.8392 25.2517V21.4777C57.8392 20.7963 57.4686 20.3769 56.7274 20.3769C55.8273 20.3769 54.7155 21.268 54.7155 21.7398V25.2517C54.7155 25.4614 55.245 25.9856 55.4567 25.9856H55.8273V26.5098H52.333V25.9856H52.7036C52.9154 25.9856 53.4448 25.5138 53.4448 25.2517V20.9011C53.4448 20.6914 52.9154 20.1673 52.7036 20.1673H52.333V19.6431H54.4508L54.7155 20.9535C55.5097 20.1148 55.9862 19.4858 57.2039 19.4858C58.104 19.4858 58.8981 19.9576 59.004 20.9011C59.8511 20.0624 60.3806 19.4858 61.5453 19.4858C62.5513 19.4858 63.3984 20.1673 63.3984 21.4253V25.2517H63.4514Z" fill="#6F6F6F"/>
<path d="M66.5213 19.6953L66.7331 21.1106C67.3155 20.0098 68.0567 19.5381 69.2215 19.5381C70.9157 19.5381 71.9216 20.9534 71.9216 22.9976C71.9216 25.0419 70.7569 26.6668 69.1156 26.6668C67.8979 26.6668 67.2625 26.1951 66.786 25.304V28.5539C66.786 28.7635 67.3155 29.2877 67.5273 29.2877H68.0038V29.8119H64.3506V29.2877H64.8271C65.0389 29.2877 65.5683 28.8159 65.5683 28.5539V20.9534C65.5683 20.7437 65.0389 20.2195 64.8271 20.2195H64.3506V19.6953H66.5213ZM66.786 22.1589V23.9411C66.786 24.9895 67.6331 25.933 68.7979 25.933C69.9627 25.933 70.5451 25.1991 70.651 24.0984C70.7569 23.4694 70.7569 22.6831 70.651 22.0541C70.4921 20.9534 69.9098 20.2719 68.9038 20.2719C67.739 20.3243 67.1037 21.1106 66.786 22.1589Z" fill="#6F6F6F"/>
<path d="M86.8526 25.9856C86.6409 25.9856 86.1114 25.5138 86.1114 25.2517V21.4777C86.1114 20.3245 85.2643 19.5383 84.2054 19.5383C82.9877 19.5383 82.3523 20.2197 81.5052 21.0584L81.2405 19.6431H79.0698V20.1673H79.4933C79.7051 20.1673 80.2346 20.6914 80.2346 20.9011V25.2517C80.2346 25.4614 79.7051 25.9856 79.4933 25.9856H79.0698H78.6462C78.4345 25.9856 77.905 25.5138 77.905 25.2517V21.5301C77.905 20.1673 76.7932 19.4858 75.3107 19.4858C73.9342 19.4858 73.14 19.9576 72.5576 20.5342L73.4577 21.897H73.9342C73.4047 20.7439 73.8283 20.01 74.9931 20.01C76.2108 20.01 76.6343 20.5342 76.5814 21.5301V22.3688L74.8342 22.7357C73.8812 22.9454 72.6106 23.4171 72.6106 24.78C72.6106 25.8807 73.4047 26.6146 74.3577 26.6146C75.3637 26.6146 76.1049 25.8283 76.6343 25.0945L76.7932 26.4573H79.0168H82.6171V25.9332H82.2465C82.0347 25.9332 81.5052 25.4614 81.5052 25.1993V21.7398C81.5052 21.268 82.7759 20.3245 83.7289 20.3245C84.4701 20.3245 84.8407 20.8487 84.8407 21.4777V25.1993C84.8407 25.409 84.3113 25.9332 84.0995 25.9332H83.676V26.4573H87.1703V25.9332H86.8526V25.9856ZM76.6343 24.5179C76.3696 25.0421 75.6284 25.7235 74.9401 25.7235C74.2518 25.7235 73.8283 25.1993 73.8283 24.6227C73.8283 23.9413 74.093 23.4696 74.9931 23.2599L76.6343 22.8405V24.5179Z" fill="#6F6F6F"/>
<path d="M87.6992 21.0059C87.5933 20.7962 87.0109 20.2196 86.7991 20.2196H86.4814V19.6954H90.1346V20.2196H89.7111C89.4993 20.2196 89.0757 20.6914 89.0757 20.9534L90.6641 24.5702L92.2524 20.9534C92.2524 20.6914 91.8288 20.2196 91.67 20.2196H91.2464V19.6954H93.9996V20.2196H93.6819C93.5231 20.2196 93.0466 20.7438 92.8877 20.9534L90.5582 26.1952L88.811 29.9692L88.1757 29.7071L90.0287 25.9855L87.6992 21.0059Z" fill="#6F6F6F"/>
</svg>
