<svg width="120" height="32" viewBox="0 0 120 32" fill="none" xmlns="http://www.w3.org/2000/svg">
<path d="M57.1077 3.8197L58.0024 7.00103C58.1088 7.40869 58.2151 7.81624 58.2859 8.15302C58.3303 8.3479 58.3657 8.53401 58.4011 8.71136H58.4189C58.4543 8.53414 58.4898 8.34802 58.5341 8.15302C58.605 7.81624 58.6936 7.40869 58.8087 7.00103L59.7032 3.8197H61.5371V10.1557H60.3413V6.52247C60.3413 6.26547 60.3413 5.94647 60.3678 5.67181C60.3767 5.52114 60.3856 5.36171 60.3944 5.21104H60.3766C60.3501 5.36171 60.3146 5.50336 60.288 5.64526C60.226 5.89337 60.164 6.17692 60.1019 6.41626L59.0122 10.1556H57.7811L56.718 6.41626C56.6471 6.17704 56.5939 5.89349 56.5319 5.64526C56.5054 5.50348 56.47 5.36171 56.4433 5.21104H56.4256C56.4345 5.36171 56.4433 5.52114 56.4522 5.67181C56.4611 5.94647 56.4787 6.26547 56.4787 6.52247V10.1557H55.3005V3.8197H57.1077ZM65.081 9.65057H65.0632C64.9509 9.83364 64.7919 9.98351 64.6025 10.0848C64.3284 10.2124 64.0279 10.2731 63.7258 10.262C62.7867 10.262 62.14 9.78345 62.14 8.8708C62.14 8.37458 62.3348 8.0378 62.6715 7.81624C63.0082 7.59468 63.4508 7.47946 63.9649 7.40857C64.7269 7.30224 65.0636 7.24024 65.0636 6.89457C65.0636 6.55779 64.8155 6.35402 64.3016 6.35402C63.7347 6.35402 63.46 6.5489 63.4249 6.99201H62.3533C62.3559 6.79227 62.4015 6.59544 62.4872 6.41497C62.5728 6.2345 62.6963 6.07465 62.8494 5.94635C63.1683 5.67169 63.6468 5.49447 64.3107 5.49447C65.6745 5.49447 66.2243 6.09702 66.2243 7.16936V9.48224C66.2243 9.82779 66.2775 10.0317 66.3838 10.1115V10.1558H65.2232C65.1414 9.99904 65.0929 9.827 65.081 9.65057ZM64.8151 9.14546C64.9002 9.07152 64.9687 8.98039 65.0161 8.87806C65.0634 8.77573 65.0885 8.66454 65.0897 8.5518V7.86971C64.8771 8.0026 64.5582 8.06459 64.2481 8.1356C63.6102 8.27738 63.309 8.41916 63.309 8.84449C63.309 9.26982 63.5925 9.42048 64.0177 9.42048C64.3087 9.43269 64.5936 9.33445 64.8153 9.14546H64.8151ZM66.6489 8.68468H67.7652C67.8449 9.21635 68.2082 9.4379 68.7574 9.4379C69.2889 9.4379 69.5901 9.23413 69.5901 8.91513C69.5901 8.70247 69.4395 8.57835 69.2269 8.49869C68.9536 8.41875 68.6754 8.35658 68.3941 8.31258C67.9778 8.2328 67.588 8.14425 67.2867 7.94036C66.9767 7.73658 66.7817 7.43525 66.7817 6.93903C66.7717 6.72514 66.8161 6.5122 66.9106 6.32006C67.0051 6.12793 67.1467 5.96287 67.3222 5.84026C67.6589 5.60104 68.1106 5.48582 68.6334 5.48582C69.8471 5.48582 70.485 6.06182 70.5825 6.99226H69.4927C69.4307 6.49604 69.1384 6.32759 68.616 6.32759C68.1375 6.32759 67.8367 6.49592 67.8367 6.8327C67.8367 7.03647 67.9873 7.13403 68.2263 7.20492C68.4567 7.2847 68.7667 7.32014 69.0856 7.39103C69.4665 7.47081 69.865 7.55936 70.1754 7.76326C70.4854 7.97592 70.6892 8.29492 70.6892 8.82658C70.6947 9.03505 70.6492 9.24169 70.5565 9.42851C70.4639 9.61533 70.327 9.77666 70.1577 9.89843C69.7492 10.1698 69.2658 10.3062 68.7756 10.2882C67.4464 10.2886 66.7198 9.65946 66.6489 8.68468ZM70.9543 8.68468H72.0706C72.1504 9.21635 72.5136 9.4379 73.0629 9.4379C73.5944 9.4379 73.8957 9.23413 73.8957 8.91513C73.8957 8.70247 73.7451 8.57835 73.5325 8.49869C73.2592 8.41875 72.981 8.35658 72.6997 8.31258C72.2833 8.2328 71.8936 8.14425 71.5923 7.94036C71.2823 7.73658 71.0873 7.43525 71.0873 6.93903C71.0773 6.72514 71.1216 6.5122 71.2161 6.32006C71.3106 6.12793 71.4522 5.96287 71.6277 5.84026C71.9644 5.60104 72.4162 5.48582 72.9388 5.48582C74.1525 5.48582 74.7905 6.06182 74.8879 6.99226H73.7982C73.7362 6.49604 73.4438 6.32759 72.9214 6.32759C72.443 6.32759 72.1421 6.49592 72.1421 6.8327C72.1421 7.03647 72.2927 7.13403 72.5318 7.20492C72.7621 7.2847 73.0722 7.32014 73.3911 7.39103C73.772 7.47081 74.1704 7.55936 74.4808 7.76326C74.791 7.97592 74.9947 8.29492 74.9947 8.82658C75.0002 9.03505 74.9546 9.24169 74.862 9.42851C74.7693 9.61533 74.6324 9.77666 74.4632 9.89843C74.0546 10.1698 73.5712 10.3062 73.0811 10.2882C71.7518 10.2886 71.0255 9.65946 70.9548 8.68468H70.9543ZM78.2631 9.65057H78.2454C78.1331 9.83364 77.9741 9.98351 77.7847 10.0848C77.5106 10.2124 77.2101 10.2731 76.908 10.262C75.9689 10.262 75.3221 9.78345 75.3221 8.8708C75.3221 8.37458 75.517 8.0378 75.8537 7.81624C76.1904 7.59468 76.633 7.47946 77.1471 7.40857C77.909 7.30224 78.2457 7.24024 78.2457 6.89457C78.2457 6.55779 77.9977 6.35402 77.4838 6.35402C76.9168 6.35402 76.6421 6.5489 76.6071 6.99201H75.5355C75.538 6.79227 75.5837 6.59544 75.6693 6.41497C75.7549 6.2345 75.8785 6.07465 76.0316 5.94635C76.3505 5.67169 76.8289 5.49447 77.4928 5.49447C78.8566 5.49447 79.4064 6.09702 79.4064 7.16936V9.48224C79.4064 9.82779 79.4597 10.0317 79.566 10.1115V10.1558H78.4054C78.3236 9.99903 78.2752 9.82699 78.2634 9.65057H78.2631ZM77.9973 9.14546C78.0824 9.07152 78.1509 8.98039 78.1982 8.87806C78.2455 8.77573 78.2707 8.66454 78.2719 8.5518V7.86971C78.0593 8.0026 77.7404 8.06459 77.4302 8.1356C76.7924 8.27738 76.4911 8.41916 76.4911 8.84449C76.4911 9.26982 76.7746 9.42048 77.1998 9.42048C77.4909 9.43272 77.7758 9.33448 77.9976 9.14546H77.9973ZM80.5221 9.58857C80.1004 9.1241 79.8749 8.5143 79.893 7.88713C79.8777 7.25938 80.0991 6.64883 80.5132 6.17692C80.7231 5.95127 80.9785 5.77293 81.2627 5.65374C81.5468 5.53456 81.853 5.47727 82.161 5.4857C82.6726 5.47046 83.1736 5.63332 83.5785 5.94647C83.9328 6.25674 84.1625 6.68493 84.2253 7.15169H83.0467C83.0177 6.95323 82.9168 6.77232 82.7633 6.64327C82.6098 6.51422 82.4143 6.44601 82.2139 6.45158C81.4785 6.45158 81.1152 6.99213 81.1152 7.88713C81.1152 8.75557 81.452 9.32268 82.1961 9.32268C82.6922 9.32268 83.0289 9.07457 83.1086 8.55168H84.2692C84.2393 9.02137 84.0262 9.46053 83.6757 9.77456C83.2726 10.1213 82.7542 10.3047 82.2228 10.2886C81.906 10.2983 81.5908 10.2409 81.2978 10.1203C81.0048 9.99965 80.7405 9.81846 80.5223 9.58857H80.5221ZM85.9706 6.20347C86.3073 5.71627 86.6617 5.4857 87.2906 5.4857C87.5029 5.47942 87.714 5.5189 87.9097 5.60148C88.1053 5.68405 88.2809 5.80778 88.4245 5.96425C88.7159 6.30393 88.8706 6.73977 88.8587 7.18714V10.1558H87.6537V7.36412C87.6537 6.8679 87.3791 6.53112 86.8653 6.53112C86.3337 6.53112 85.9439 6.94755 85.9439 7.57678V10.1554H84.7393V3.8197H85.9448V6.20347H85.9706ZM92.4202 9.62401H92.3936C92.2532 9.83801 92.0589 10.0113 91.8303 10.1264C91.6017 10.2415 91.3468 10.2944 91.0913 10.2798C90.0724 10.2798 89.5144 9.65069 89.5144 8.64047V5.61018H90.7104V8.43596C90.7104 8.96763 90.9407 9.26007 91.4634 9.26007C92.0304 9.26007 92.376 8.83474 92.376 8.23219V5.61018H93.5809V10.1562H92.4203L92.4202 9.62401ZM94.0238 8.68468H95.1401C95.2198 9.21635 95.5831 9.4379 96.1324 9.4379C96.6639 9.4379 96.9652 9.23413 96.9652 8.91513C96.9652 8.70247 96.8145 8.57835 96.6019 8.49869C96.3286 8.41875 96.0505 8.35659 95.7691 8.31258C95.3528 8.2328 94.963 8.14425 94.6618 7.94036C94.3516 7.73658 94.1568 7.43525 94.1568 6.93903C94.1468 6.72514 94.1911 6.5122 94.2856 6.32006C94.3801 6.12793 94.5217 5.96287 94.6972 5.84026C95.0339 5.60104 95.4856 5.48582 96.0083 5.48582C97.222 5.48582 97.8599 6.06182 97.9573 6.99226H96.8676C96.8056 6.49604 96.5133 6.32759 95.9909 6.32759C95.5124 6.32759 95.2115 6.49592 95.2115 6.8327C95.2115 7.03647 95.3622 7.13403 95.6012 7.20492C95.8316 7.2847 96.1416 7.32014 96.4605 7.39103C96.8414 7.47081 97.2399 7.55936 97.5503 7.76326C97.8603 7.97592 98.0641 8.29492 98.0641 8.82658C98.0696 9.03505 98.0241 9.24169 97.9314 9.42851C97.8388 9.61533 97.7019 9.77666 97.5326 9.89843C97.1241 10.1698 96.6406 10.3062 96.1505 10.2882C94.8213 10.2886 94.0947 9.65946 94.0238 8.68468ZM98.9847 9.58857C98.5772 9.16324 98.3734 8.5518 98.3734 7.87836C98.3595 7.25188 98.5844 6.64357 99.0025 6.17692C99.2074 5.95463 99.457 5.77815 99.7349 5.65903C100.013 5.53991 100.313 5.48085 100.615 5.4857C101.35 5.4857 101.899 5.76036 102.28 6.24781C102.661 6.73526 102.856 7.40869 102.856 8.22391H99.5607C99.6581 8.93279 100.03 9.35812 100.721 9.35812C101.2 9.35812 101.465 9.14546 101.598 8.79978H102.786C102.703 9.21486 102.473 9.58615 102.139 9.84545C101.733 10.1477 101.236 10.3038 100.73 10.2886C99.9683 10.2886 99.3923 10.0227 98.9847 9.58857ZM99.5784 7.39091H101.598C101.563 6.80627 101.191 6.4165 100.633 6.4165C99.9948 6.41614 99.6847 6.78824 99.5784 7.39091ZM103.636 5.61018V4.19193H104.814V5.61018H105.594V6.45195H104.814V8.81793C104.814 9.16348 104.991 9.26982 105.266 9.26982H105.497C105.538 9.27127 105.58 9.26829 105.62 9.26092V10.147C105.556 10.1546 105.491 10.1576 105.426 10.1559C105.293 10.1648 105.107 10.1648 104.868 10.1648C104.574 10.1779 104.283 10.1006 104.035 9.94325C103.796 9.77492 103.636 9.50014 103.636 9.07481V6.45158H103.007V5.61018H103.636ZM106.436 5.61018V4.19193H107.614V5.61018H108.393V6.45195H107.614V8.81793C107.614 9.16348 107.791 9.26982 108.066 9.26982H108.296C108.337 9.27127 108.379 9.26829 108.42 9.26092V10.147C108.355 10.1546 108.29 10.1576 108.225 10.1559C108.092 10.1648 107.906 10.1648 107.667 10.1648C107.373 10.1779 107.083 10.1006 106.834 9.94325C106.595 9.77492 106.436 9.50014 106.436 9.07481V6.45158H105.807V5.61018H106.436ZM108.721 8.68505H109.837C109.917 9.21671 110.28 9.43827 110.829 9.43827C111.361 9.43827 111.662 9.23449 111.662 8.9155C111.662 8.70283 111.512 8.57872 111.299 8.49906C111.026 8.41911 110.748 8.35695 110.466 8.31295C110.05 8.23317 109.66 8.14462 109.359 7.94072C109.049 7.73695 108.854 7.43561 108.854 6.9394C108.844 6.7255 108.888 6.51256 108.983 6.32043C109.077 6.1283 109.219 5.96323 109.394 5.84063C109.731 5.60141 110.183 5.48619 110.706 5.48619C111.919 5.48619 112.557 6.06218 112.655 6.99262H111.565C111.503 6.4964 111.211 6.32795 110.689 6.32795C110.21 6.32795 109.909 6.49628 109.909 6.83306C109.909 7.03684 110.06 7.1344 110.299 7.20529C110.529 7.28507 110.839 7.32051 111.158 7.3914C111.539 7.47118 111.938 7.55973 112.248 7.76362C112.558 7.97629 112.762 8.29529 112.762 8.82695C112.767 9.03541 112.722 9.24206 112.629 9.42888C112.536 9.6157 112.399 9.77702 112.23 9.8988C111.822 10.1702 111.338 10.3065 110.848 10.2886C109.518 10.2886 108.792 9.65946 108.721 8.68468L108.721 8.68505ZM56.585 12.0565V18.3925H55.3005V12.0565H56.585ZM58.6226 14.4668C58.7547 14.2289 58.9511 14.033 59.1892 13.9014C59.4273 13.7698 59.6976 13.7078 59.9693 13.7225C60.1816 13.7161 60.3928 13.7556 60.5885 13.8381C60.7843 13.9207 60.9599 14.0444 61.1036 14.2009C61.3949 14.5406 61.5496 14.9764 61.5377 15.4238V18.3925H60.3328V15.601C60.3328 15.1048 60.0582 14.768 59.5443 14.768C59.0128 14.768 58.623 15.1846 58.623 15.8137V18.3924H57.4182V13.8465H58.5964V14.4668H58.6226ZM61.9448 16.9215H63.061C63.1408 17.4531 63.504 17.6747 64.0532 17.6747C64.5848 17.6747 64.886 17.4709 64.886 17.1519C64.886 16.9393 64.7354 16.8152 64.5228 16.7355C64.2495 16.6556 63.9713 16.5934 63.69 16.5494C63.2737 16.4696 62.8839 16.3811 62.5826 16.1772C62.2725 15.9734 62.0776 15.672 62.0776 15.1758C62.0676 14.9619 62.1119 14.749 62.2064 14.5569C62.3009 14.3647 62.4425 14.1997 62.618 14.0771C62.9547 13.8378 63.4065 13.7226 63.9293 13.7226C65.143 13.7226 65.7808 14.2986 65.8783 15.2291H64.7886C64.7266 14.7328 64.4343 14.5644 63.9119 14.5644C63.4334 14.5644 63.1325 14.7327 63.1325 15.0695C63.1325 15.2733 63.2832 15.3708 63.5222 15.4417C63.7526 15.5215 64.0626 15.5569 64.3815 15.6278C64.7624 15.7076 65.1609 15.7962 65.4712 16.0001C65.7813 16.2127 65.9851 16.5317 65.9851 17.0634C65.9906 17.2718 65.945 17.4785 65.8524 17.6653C65.7598 17.8521 65.6228 18.0135 65.4536 18.1352C65.045 18.4066 64.5616 18.543 64.0715 18.525C62.7421 18.5254 62.0156 17.8963 61.9448 16.9215ZM66.7464 13.8466V12.4286H67.9247V13.8465H68.704V14.6883H67.9247V17.0542C67.9247 17.3998 68.1019 17.5061 68.3766 17.5061H68.6068C68.6484 17.5076 68.69 17.5046 68.7309 17.4972V18.3833C68.6663 18.3909 68.6012 18.3939 68.5361 18.3922C68.4032 18.4011 68.2172 18.4011 67.978 18.4011C67.6843 18.4142 67.3936 18.3369 67.1452 18.1796C66.9061 18.0112 66.7466 17.7365 66.7466 17.3111V14.6883H66.1176V13.8465L66.7464 13.8466ZM70.476 12.225V13.3061H69.2712V12.225H70.476ZM70.476 13.8466V18.3926H69.2712V13.8465L70.476 13.8466ZM71.5658 13.8466V12.4286H72.744V13.8465H73.5242V14.6883H72.7449V17.0542C72.7449 17.3998 72.922 17.5061 73.1967 17.5061H73.4268C73.4683 17.5076 73.5099 17.5046 73.5509 17.4972V18.3833C73.4862 18.3909 73.4211 18.3939 73.356 18.3922C73.2232 18.4011 73.0371 18.4011 72.7978 18.4011C72.5041 18.4142 72.2134 18.3369 71.965 18.1796C71.7259 18.0112 71.5664 17.7365 71.5664 17.3111V14.6883H70.9373V13.8465L71.5658 13.8466ZM76.9609 17.8608H76.9338C76.7932 18.0749 76.5989 18.2482 76.3701 18.3633C76.1414 18.4784 75.8864 18.5313 75.6308 18.5166C74.6121 18.5166 74.0539 17.8874 74.0539 16.8773V13.8465H75.2499V16.6733C75.2499 17.2049 75.4802 17.4974 76.003 17.4974C76.5699 17.4974 76.9155 17.072 76.9155 16.4695V13.8465H78.1203V18.3925H76.9597L76.9609 17.8608ZM79.2112 13.8466V12.4286H80.3895V13.8465H81.1688V14.6883H80.3895V17.0542C80.3895 17.3998 80.5667 17.5061 80.8413 17.5061H81.0717C81.1132 17.5078 81.1548 17.5051 81.1957 17.498V18.3841C81.1311 18.3917 81.066 18.3946 81.0009 18.393C80.8681 18.4019 80.682 18.4019 80.4427 18.4019C80.149 18.415 79.8583 18.3376 79.6099 18.1803C79.3708 18.012 79.2112 17.7372 79.2112 17.3119V14.6883H78.5822V13.8465L79.2112 13.8466ZM82.0816 17.8254C81.6741 17.4 81.4703 16.7886 81.4703 16.1152C81.4564 15.4887 81.6813 14.8804 82.0994 14.4137C82.3043 14.1914 82.5539 14.015 82.8318 13.8958C83.1096 13.7767 83.4095 13.7177 83.7118 13.7225C84.447 13.7225 84.9963 13.9972 85.3773 14.4846C85.7584 14.9721 85.9532 15.6455 85.9532 16.4607H82.657C82.7544 17.1696 83.1265 17.5949 83.8176 17.5949C84.296 17.5949 84.5617 17.3823 84.6943 17.0366H85.8815C85.7988 17.4517 85.5692 17.8229 85.2347 18.0822C84.8285 18.3844 84.3322 18.5406 83.8261 18.5254C83.0649 18.5254 82.4892 18.2595 82.0816 17.8252V17.8254ZM82.6751 15.6277H84.6951C84.6596 15.0431 84.2875 14.6533 83.7294 14.6533C83.0916 14.6528 82.7814 15.0254 82.6751 15.6276V15.6277ZM88.3361 17.8254C88.1186 17.5997 87.9479 17.3331 87.8339 17.0411C87.7198 16.7491 87.6647 16.4374 87.6717 16.1239C87.6593 15.4886 87.898 14.874 88.3361 14.4137C88.5594 14.1886 88.8262 14.0112 89.1201 13.8923C89.414 13.7735 89.729 13.7156 90.046 13.7221C90.3642 13.7164 90.6802 13.7746 90.9755 13.8933C91.2707 14.0121 91.5391 14.1889 91.7647 14.4134C92.1967 14.8768 92.4317 15.49 92.4203 16.1236C92.4334 16.7548 92.1979 17.3658 91.7647 17.825C91.5408 18.0524 91.273 18.2318 90.9775 18.3521C90.682 18.4725 90.365 18.5314 90.046 18.5251C89.7282 18.5323 89.4124 18.4738 89.1182 18.3534C88.824 18.233 88.5577 18.0532 88.3361 17.8252V17.8254ZM91.1977 16.1239C91.1977 15.2289 90.7902 14.6352 90.046 14.6352C89.3019 14.6352 88.8943 15.2289 88.8943 16.1239C88.8943 17.01 89.3019 17.6038 90.046 17.6038C90.7902 17.6038 91.1977 17.01 91.1977 16.1239ZM93.191 13.8462V13.4386C93.191 12.8804 93.4036 12.5081 93.7669 12.2866C94.1212 12.0739 94.6262 12.003 95.2109 12.065V12.9955C94.644 12.9689 94.3959 13.0309 94.3959 13.5095V13.8462H95.2115V14.7147H94.3957V18.3922H93.1909V14.7149H92.5707V13.8465L93.191 13.8462ZM58.4898 20.2932V21.3743H56.585V26.6292H55.3005V21.3743H53.3955V20.2932H58.4898ZM58.3569 26.0621C57.9494 25.6367 57.7456 25.0253 57.7456 24.3518C57.7317 23.7254 57.9566 23.1171 58.3747 22.6504C58.5796 22.4281 58.8292 22.2516 59.1071 22.1325C59.3849 22.0134 59.6848 21.9543 59.9871 21.9592C60.7223 21.9592 61.2716 22.2338 61.6526 22.7213C62.0337 23.2087 62.2285 23.8822 62.2285 24.6974H58.9328C59.0302 25.4063 59.4023 25.8316 60.0934 25.8316C60.5718 25.8316 60.8375 25.6189 60.9701 25.2733H62.1573C62.0746 25.6883 61.8449 26.0596 61.5105 26.3189C61.1043 26.6211 60.6079 26.7773 60.1019 26.762C59.3402 26.762 58.7645 26.4963 58.3569 26.0621ZM58.9506 23.8644H60.9705C60.935 23.2797 60.5629 22.89 60.0048 22.89C59.3669 22.8896 59.0567 23.2618 58.9506 23.8644ZM63.1409 26.0621C62.7192 25.5976 62.4938 24.9878 62.5119 24.3606C62.4965 23.7329 62.7179 23.1223 63.132 22.6504C63.3419 22.4248 63.5974 22.2464 63.8815 22.1272C64.1656 22.008 64.4719 21.9508 64.7798 21.9592C65.2914 21.9439 65.7925 22.1068 66.1974 22.42C66.5516 22.7302 66.7814 23.1584 66.8441 23.6252H65.6658C65.6368 23.4267 65.536 23.2458 65.3825 23.1168C65.229 22.9877 65.0335 22.9195 64.8331 22.9251C64.0977 22.9251 63.7346 23.4656 63.7346 24.3606C63.7346 25.2291 64.0713 25.7962 64.8154 25.7962C65.3115 25.7962 65.6482 25.548 65.7278 25.0252H66.8884C66.8585 25.4949 66.6453 25.934 66.2948 26.248C65.8916 26.5948 65.3733 26.7782 64.8418 26.762C64.525 26.7718 64.2097 26.7145 63.9165 26.5939C63.6234 26.4733 63.359 26.292 63.1408 26.0621H63.1409ZM68.5894 22.677C68.9261 22.1898 69.2805 21.9592 69.9094 21.9592C70.1217 21.9529 70.3329 21.9924 70.5285 22.0749C70.7242 22.1575 70.8998 22.2812 71.0435 22.4377C71.3348 22.7774 71.4895 23.2132 71.4776 23.6606V26.6292H70.2729V23.8378C70.2729 23.3416 69.9983 23.0048 69.4844 23.0048C68.9529 23.0048 68.563 23.4213 68.563 24.0505V26.6292H67.3582V20.2932H68.563V22.677H68.5894ZM73.3734 22.7035C73.5056 22.4656 73.7019 22.2697 73.94 22.1381C74.1781 22.0065 74.4484 21.9445 74.7201 21.9592C74.9324 21.9529 75.1435 21.9924 75.3392 22.075C75.5348 22.1575 75.7104 22.2813 75.854 22.4377C76.1456 22.7775 76.3004 23.2135 76.2884 23.6611V26.6296H75.0828V23.8378C75.0828 23.3416 74.8083 23.0048 74.2944 23.0048C73.7629 23.0048 73.3731 23.4213 73.3731 24.0505V26.6292H72.1682V22.0832H73.3464V22.7035H73.3734ZM77.4221 26.0621C77.2045 25.8364 77.0338 25.5698 76.9197 25.2778C76.8057 24.9858 76.7506 24.674 76.7576 24.3606C76.7451 23.7252 76.9839 23.1106 77.4221 22.6504C77.6454 22.4254 77.9121 22.248 78.2061 22.1292C78.5 22.0104 78.815 21.9526 79.132 21.9592C79.4501 21.9534 79.7662 22.0117 80.0614 22.1304C80.3566 22.2491 80.625 22.426 80.8506 22.6504C81.2826 23.1139 81.5177 23.7271 81.5063 24.3606C81.5193 24.9918 81.2839 25.6029 80.8506 26.0621C80.6268 26.2894 80.3589 26.4688 80.0634 26.5892C79.7679 26.7096 79.451 26.7684 79.132 26.7622C78.8141 26.7693 78.4982 26.7108 78.204 26.5904C77.9098 26.4699 77.6436 26.2901 77.4219 26.0621H77.4221ZM80.2837 24.3606C80.2837 23.4656 79.8761 22.8718 79.132 22.8718C78.3878 22.8718 77.9803 23.4656 77.9803 24.3606C77.9803 25.2467 78.3878 25.8405 79.132 25.8405C79.8761 25.8405 80.2836 25.2468 80.2836 24.3606H80.2837ZM83.2338 20.2932V26.6292H82.0287V20.2932H83.2338ZM84.421 26.0621C84.2034 25.8364 84.0327 25.5698 83.9186 25.2778C83.8046 24.9858 83.7495 24.674 83.7565 24.3606C83.744 23.7252 83.9828 23.1106 84.421 22.6504C84.6443 22.4254 84.911 22.248 85.205 22.1292C85.4989 22.0104 85.8139 21.9526 86.1309 21.9592C86.449 21.9534 86.7651 22.0116 87.0603 22.1304C87.3555 22.2491 87.6239 22.426 87.8495 22.6504C88.2815 23.1139 88.5165 23.7271 88.5051 24.3606C88.5182 24.9918 88.2828 25.6029 87.8495 26.0621C87.6257 26.2895 87.3578 26.4688 87.0623 26.5892C86.7668 26.7096 86.4499 26.7684 86.1309 26.7622C85.813 26.7693 85.4971 26.7108 85.2028 26.5904C84.9086 26.4699 84.6423 26.2901 84.4207 26.0621H84.421ZM87.2826 24.3606C87.2826 23.4656 86.8751 22.8718 86.1309 22.8718C85.3866 22.8718 84.9792 23.4656 84.9792 24.3606C84.9792 25.2467 85.3867 25.8405 86.1309 25.8405C86.875 25.8405 87.2822 25.2468 87.2822 24.3606H87.2826ZM88.886 26.762H90.0821C90.1795 27.0456 90.4275 27.2672 90.9946 27.2672C91.6679 27.2672 92.0046 26.957 92.0046 26.3189V25.8227H91.9781C91.8356 25.9981 91.6539 26.1376 91.4477 26.2299C91.2416 26.3222 91.0166 26.3649 90.7909 26.3544C90.535 26.356 90.2814 26.3059 90.0454 26.2069C89.8094 26.1079 89.5959 25.9621 89.4177 25.7784C89.2094 25.5695 89.0461 25.3202 88.9379 25.0458C88.8297 24.7713 88.7789 24.4776 88.7886 24.1828C88.7886 23.5093 88.9923 22.951 89.3468 22.5611C89.5234 22.3639 89.741 22.2077 89.9844 22.1036C90.2277 21.9995 90.4909 21.95 90.7555 21.9586C91.3224 21.9586 91.7389 22.1801 92.0135 22.5611H92.0311V22.0826H93.1917V26.2829C93.1917 26.9209 92.9969 27.3547 92.6513 27.6652C92.2703 28.0196 91.6857 28.1792 91.0123 28.1792C89.7539 28.1799 89.0187 27.6483 88.8857 26.762H88.886ZM91.8184 25.0252C91.9934 24.7704 92.0805 24.4655 92.0664 24.1567C92.0777 23.8456 91.9841 23.5398 91.8006 23.2883C91.7027 23.1682 91.5779 23.0727 91.4363 23.0096C91.2948 22.9465 91.1404 22.9175 90.9856 22.9249C90.3654 22.9249 89.9668 23.3946 89.9668 24.1656C89.9668 24.9451 90.3654 25.3885 90.9945 25.3885C91.1507 25.3968 91.3066 25.3683 91.4497 25.3052C91.5928 25.2421 91.719 25.1462 91.8182 25.0253L91.8184 25.0252ZM94.4407 27.1696C94.9278 27.1696 95.114 26.9304 95.114 26.5493C95.1114 26.3961 95.0875 26.244 95.0431 26.0974C94.9811 25.9113 94.9014 25.6632 94.7685 25.3178L93.546 22.0834H94.8124L95.4856 24.1304C95.5565 24.3431 95.6185 24.5823 95.6805 24.7862C95.707 24.9014 95.7425 25.0077 95.7779 25.123H95.7956C95.8221 25.0077 95.8488 24.9014 95.8753 24.7862C95.9261 24.5646 95.9882 24.3457 96.0614 24.1304L96.6993 22.0834H97.913L96.3272 26.7445C96.15 27.2585 95.9817 27.5952 95.7427 27.8078C95.4947 28.0294 95.1846 28.1181 94.7238 28.1181H94.0152V27.1698L94.4407 27.1696ZM29.9632 26.629H35.0307V11.4229H29.9629L29.9632 26.629ZM37.5645 8.88833H50.2329V3.8197H37.5642L37.5645 8.88833ZM29.9629 3.8197H35.0304V8.88846H29.9629V3.8197ZM22.3616 26.6292H27.4291V3.8197H22.3616V26.6292ZM14.7603 21.5604H19.8278V3.8197H14.7605L14.7603 21.5604ZM7.15918 26.6292H12.2267V3.8197H7.15918V26.6292ZM37.5642 26.6292H42.6317V11.4229H37.5642V26.6292Z" fill="#6F6F6F"/>
</svg>
